# AST/ASF file generated using VICON BodyLanguage
# -----------------------------------------------
:version 1.10
:name VICON
:units
  mass 1.0
  length 0.45
  angle deg
:documentation
   .ast/.asf automatically generated from VICON data using
   VICON BodyBuilder and BodyLanguage model FoxedUp or BRILLIANT.MOD
:root
   order TX TY TZ RX RY RZ
   axis XYZ
   position 0 0 0  
   orientation 0 0 0 
:bonedata
  begin
     id 1 
     name lhipjoint
     direction 0.523584 -0.783993 0.333487 
     length 2.44404 
     axis 0 0 0  XYZ
  end
  begin
     id 2 
     name lfemur
     direction 0.34202 -0.939693 0  
     length 7.29523  
     axis 0 0 20  XYZ
    dof rx ry rz
    limits (-160.0 20.0)
           (-70.0 70.0)
           (-60.0 70.0)
  end
  begin
     id 3 
     name ltibia
     direction 0.34215 -0.939645 0   
     length 7.81194   
     axis 0 0 20   XYZ
    dof rx
    limits (-10.0 170.0)
  end
  begin
     id 4 
     name lfoot
     direction 0.0941847 -0.25877 0.961336   
     length 2.41437   
     axis -90 7.62852e-016 20   XYZ
    dof rx rz
    limits (-45.0 90.0)
           (-70.0 20.0)
  end
  begin
     id 5 
     name ltoes
     direction 1.53526e-011 -4.21768e-011 1   
     length 1.2048   
     axis -90 7.62852e-016 20   XYZ
    dof rx
    limits (-90.0 20.0)
  end
  begin
     id 6 
     name rhipjoint
     direction -0.46599 -0.814191 0.346332   
     length 2.35339  
     axis 0 0 0  XYZ 
  end
  begin
     id 7 
     name rfemur
     direction -0.34202 -0.939693 0   
     length 7.34966   
     axis 0 0 -20   XYZ
    dof rx ry rz
    limits (-160.0 20.0)
           (-70.0 70.0)
           (-70.0 60.0)
  end
  begin
     id 8 
     name rtibia
     direction -0.34202 -0.939693 0   
     length 7.89934   
     axis 0 0 -20   XYZ
    dof rx
    limits (-10.0 170.0)
 end
 begin
     id 9 
     name rfoot
     direction -0.0975468 -0.268008 0.958466   
     length 2.27725  
     axis -90 -7.62852e-016 -20   XYZ
    dof rx rz
    limits (-45.0 90.0)
           (-20.0 70.0)
  end
  begin
     id 10 
     name rtoes
     direction -1.53563e-011 -4.22022e-011 1   
     length 1.13683   
     axis -90 -7.62852e-016 -20   XYZ
    dof rx
    limits (-90.0 20.0)
  end
  begin
     id 11 
     name lowerback
     direction -0.00456414 0.999242 -0.0386661   
     length 2.16968   
     axis 0 0 0   XYZ
    dof rx ry rz
    limits (-20.0 45.0)
           (-30.0 30.0)
           (-30.0 30.0)
  end
  begin
     id 12 
     name upperback
     direction 0.0297078 0.998988 0.0337799   
     length 2.15674   
     axis 0 0 0   XYZ
    dof rx ry rz
    limits (-20.0 45.0)
           (-30.0 30.0)
           (-30.0 30.0)
  end
  begin
     id 13 
     name thorax
     direction 0.0309305 0.998202 0.0513506   
     length 2.16319   
     axis 0 0 0   XYZ
    dof rx ry rz
    limits (-20.0 45.0)
           (-30.0 30.0)
           (-30.0 30.0)
  end
  begin
     id 14 
     name lowerneck
     direction -0.103039 0.983474 0.148872   
     length 1.64318   
     axis 0 0 0   XYZ
    dof rx ry rz
    limits (-20.0 45.0)
           (-30.0 30.0)
           (-30.0 30.0)
  end
  begin
     id 15 
     name upperneck
     direction 0.128124 0.971079 -0.201469   
     length 1.68242   
     axis 0 0 0   XYZ
    dof rx ry rz
    limits (-20.0 45.0)
           (-30.0 30.0)
           (-30.0 30.0)
  end
  begin
     id 16
     name head
     direction 0.0496365 0.994919 -0.0875941  
     length 1.70108  
     axis 0 0 0   XYZ
    dof rx ry rz
    limits (-20.0 45.0)
           (-30.0 30.0)
           (-30.0 30.0)
  end
  begin
     id 17 
     name lclavicle
     direction 0.887148 0.430222 -0.166967  
     length 3.25763  
     axis 0 0 0   XYZ
    dof ry rz
    limits (-20.0 10.0)
           (0.0 20.0)
  end
  begin
     id 18 
     name lhumerus
     direction 1 -4.48962e-011 1.92156e-027   
     length 5.10755   
     axis 180 -30 -90   XYZ
    dof rx ry rz
    limits (-60.0 90.0)
           (-90.0 90.0)
           (-90.0 90.0)
  end
  begin
     id 19
     name lradius
     direction 1 -4.48958e-011 7.10963e-027   
     length 3.36253   
     axis 180 -30 -90   XYZ
    dof rx
    limits (-10.0 170.0)
  end
  begin
     id 20
     name lwrist
     direction 1 -4.48946e-011 1.82396e-026   
     length 1.68127   
     axis -1.15222e-014 90 90   XYZ
    dof ry
    limits (-180.0 0.0)
 end
  begin
     id 21 
     name lhand
     direction 1 -4.48919e-011 3.64759e-026   
     length 0.619088   
     axis -2.32787e-014 90 90   XYZ
    dof rx rz
    limits (-90.0 90.0)
           (-45.0 45.0)
  end
  begin
     id 22 
     name lfingers
     direction 1 -4.49012e-011 7.29744e-026   
     length 0.499125   
     axis -4.6558e-014 90 90   XYZ
    dof rx
    limits (0.0 90.0)
  end
  begin
     id 23
     name lthumb
     direction 0.707107 -6.35028e-011 0.707107   
     length 0.716646   
     axis -90 45 3.78391e-014   XYZ
    dof rx rz
    limits (-45.0 45.0)
           (-45.0 45.0)
  end
  begin
     id 24 
     name rclavicle
     direction -0.82886 0.533198 -0.169384   
     length 3.20647  
     axis 0 0 0   XYZ 
    dof ry rz
    limits (-10.0 20.0)
           (-20.0 0.0)
  end
  begin
     id 25 
     name rhumerus
     direction -1 -4.48973e-011 3.06863e-027  
     length 5.27387   
     axis 180 30 90   XYZ
    dof rx ry rz
    limits (-90.0 60.0)
           (-90.0 90.0)
           (-90.0 90.0)
  end
  begin
     id 26 
     name rradius
     direction -1 -4.48988e-011 9.4797e-027   
     length 3.40144   
     axis 180 30 90   XYZ
    dof rx
    limits (-10.0 170.0)
  end
  begin
     id 27 
     name rwrist
     direction -1 -4.48897e-011 1.82366e-026   
     length 1.70072   
     axis -1.15222e-014 -90 -90   XYZ
    dof ry
    limits (-180.0 0.0)
  end
  begin
     id 28
     name rhand
     direction -1 -4.48965e-011 3.64815e-026   
     length 0.742821   
     axis -2.32787e-014 -90 -90   XYZ
    dof rx rz
    limits (-90.0 90.0)
           (-45.0 45.0)
  end
  begin
     id 29
     name rfingers
     direction -1 -4.49016e-011 7.29754e-026   
     length 0.598881   
     axis -4.6558e-014 -90 -90   XYZ
    dof rx
    limits (0.0 90.0)
  end
  begin
     id 30
     name rthumb
     direction -0.707107 -6.3488e-011 0.707107   
     length 0.859877   
     axis -90 -45 -3.78391e-014   XYZ
    dof rx rz
    limits (-45.0 45.0)
           (-45.0 45.0)
  end
:hierarchy
  begin
    root lhipjoint rhipjoint lowerback
    lhipjoint lfemur
    lfemur ltibia
    ltibia lfoot
    lfoot ltoes
    rhipjoint rfemur
    rfemur rtibia
    rtibia rfoot
    rfoot rtoes
    lowerback upperback
    upperback thorax
    thorax lowerneck lclavicle rclavicle
    lowerneck upperneck
    upperneck head
    lclavicle lhumerus
    lhumerus lradius
    lradius lwrist
    lwrist lhand lthumb
    lhand lfingers
    rclavicle rhumerus
    rhumerus rradius
    rradius rwrist
    rwrist rhand rthumb
    rhand rfingers
  end

#!OML:ASF F:\Work\Patient Classification 1\justin\Session 1\justin.ASF
:FULLY-SPECIFIED
:DEGREES
609
root 1.46133 15.3585 15.3831 156.09 -81.2546 -185.537
lowerback 29.5419 3.20076 -2.30449
upperback 14.9817 1.69057 2.42198
thorax 0.517985 -0.233941 3.5026
lowerneck -10.8128 0.00665916 -11.0368
upperneck 30.7372 0.71169 2.7431
head 11.8101 -0.975639 2.95546
rclavicle 2.23633e-014 7.95139e-015
rhumerus -28.981 -3.22556 -79.6494
rradius 31.1132
rwrist -2.89399
rhand -19.936 15.3975
rfingers 7.12502
rthumb 6.4016 -14.4858
lclavicle 2.23633e-014 7.95139e-015
lhumerus -48.711 -11.8673 97.2204
lradius 68.049
lwrist 17.7183
lhand -21.0889 22.96
lfingers 7.12502
lthumb 5.2885 52.874
rfemur -39.8752 -8.56821 11.8801
rtibia 79.5339
rfoot 13.7013 -2.13846
rtoes -0.00473395
lfemur -44.2029 23.5653 -9.96654
ltibia 94.7453
lfoot 10.8147 -10.5366
ltoes -25.1273
610
root 1.47063 15.3467 15.3872 156.267 -81.4731 -185.961
lowerback 29.6602 3.10832 -2.15616
upperback 14.8274 1.63081 2.25571
thorax 0.2995 -0.230122 3.25046
lowerneck -11.1803 -0.0261529 -11.7088
upperneck 30.5956 0.624189 3.69881
head 11.8211 -0.956083 3.4244
rclavicle -5.86415e-015 1.43125e-014
rhumerus -29.0329 -3.28127 -79.6504
rradius 31.1011
rwrist -3.03386
rhand -18.6295 15.8525
rfingers 7.12502
rthumb 7.66278 -13.9886
lclavicle -5.86415e-015 1.43125e-014
lhumerus -48.7496 -11.9972 96.53
lradius 68.5508
lwrist 17.0457
lhand -18.399 23.9685
lfingers 7.12502
lthumb 7.88521 53.8014
rfemur -40.365 -8.68296 11.4631
rtibia 80.4035
rfoot 14.1539 -2.92691
rtoes 4.60177
lfemur -44.6298 23.5791 -10.3201
ltibia 95.8004
lfoot 11.3658 -10.0293
ltoes -23.5138
611
root 1.47672 15.3428 15.3832 154.454 -81.3579 -184.39
lowerback 29.6471 3.15453 -1.96348
upperback 14.7748 1.75442 2.37746
thorax 0.237588 -0.156844 3.23927
lowerneck -10.8944 -0.147187 -10.8409
upperneck 29.7561 0.422964 3.14627
head 11.4542 -0.966153 3.0236
rclavicle 8.94531e-016 6.75868e-015
rhumerus -28.9403 -2.69266 -79.4969
rradius 31.0606
rwrist -3.36057
rhand -18.6777 15.9377
rfingers 7.12502
rthumb 7.61625 -13.9051
lclavicle 8.94531e-016 6.75868e-015
lhumerus -48.6924 -12.2525 96.0718
lradius 69.2642
lwrist 16.8095
lhand -15.6894 25.2653
lfingers 7.12502
lthumb 10.4998 54.983
rfemur -40.6058 -8.83624 11.8483
rtibia 81.2492
rfoot 14.5333 -2.52777
rtoes 2.40348
lfemur -44.7297 23.8535 -9.90917
ltibia 96.8224
lfoot 12.0344 -9.49809
ltoes -19.9992
612
root 1.47827 15.3264 15.4116 149.759 -81.1437 -179.734
lowerback 29.5302 2.88053 -1.04637
upperback 14.6906 1.66178 2.58505
thorax 0.219224 -0.152642 2.96929
lowerneck -11.159 -0.216552 -10.9594
upperneck 29.478 0.341851 3.41556
head 11.4028 -0.96052 3.1326
rclavicle -2.6339e-014 1.86858e-014
rhumerus -28.7328 -2.139 -79.3132
rradius 30.9178
rwrist -3.29607
rhand -19.2939 15.863
rfingers 7.12502
rthumb 7.02148 -14.0006
lclavicle -2.6339e-014 1.86858e-014
lhumerus -48.4181 -12.0188 95.661
lradius 69.8381
lwrist 15.8041
lhand -12.8042 27.1218
lfingers 7.12502
lthumb 13.2819 56.6785
rfemur -40.9922 -9.48989 12.7603
rtibia 82.0908
rfoot 14.9545 -1.53494
rtoes -1.4334
lfemur -45.214 24.0842 -9.26407
ltibia 97.9705
lfoot 12.3732 -9.3751
ltoes -18.5915
613
root 1.47725 15.3102 15.4307 144.785 -80.9615 -174.791
lowerback 29.3989 2.60503 -0.0547538
upperback 14.5862 1.58888 2.76125
thorax 0.188037 -0.130881 2.61618
lowerneck -11.4453 -0.446487 -11.1605
upperneck 29.3749 -0.0484379 3.99416
head 11.4481 -1.07529 3.33624
rclavicle -1.60022e-014 1.11319e-014
rhumerus -28.619 -2.88883 -79.0986
rradius 30.7395
rwrist -2.34242
rhand -19.6587 15.8662
rfingers 7.12502
rthumb 6.66931 -14.0088
lclavicle -1.60022e-014 1.11319e-014
lhumerus -48.047 -11.8346 95.1019
lradius 70.1543
lwrist 13.9554
lhand -9.22373 28.9739
lfingers 7.12502
lthumb 16.7311 58.2729
rfemur -41.4078 -10.1725 13.6173
rtibia 82.9817
rfoot 15.2563 -1.07967
rtoes -3.09729
lfemur -45.6939 24.2849 -8.63048
ltibia 99.0746
lfoot 12.4599 -9.58235
ltoes -18.3949
614
root 1.47673 15.2924 15.4434 145.313 -81.0383 -175.624
lowerback 29.5024 2.65583 -0.01627
upperback 14.5121 1.67824 2.74675
thorax 0.0542623 -0.0766418 2.55246
lowerneck -11.5982 -0.491872 -11.2644
upperneck 29.11 -0.115104 4.26605
head 11.3796 -1.06352 3.44413
rclavicle -2.10712e-014 -1.63003e-014
rhumerus -28.5935 -2.69931 -78.8793
rradius 30.767
rwrist -2.63982
rhand -17.6726 16.2508
rfingers 7.12502
rthumb 8.58628 -13.5546
lclavicle -2.10712e-014 -1.63003e-014
lhumerus -47.6512 -11.7468 94.5892
lradius 70.3933
lwrist 13.2028
lhand -5.29417 30.4241
lfingers 7.12502
lthumb 20.5107 59.3607
rfemur -41.6623 -10.6432 13.3354
rtibia 83.9489
rfoot 15.5545 -0.761135
rtoes -3.39861
lfemur -45.6585 24.574 -8.89322
ltibia 99.9938
lfoot 12.3336 -10.0476
ltoes -19.3033
615
root 1.47661 15.2793 15.4188 150.776 -81.3705 -181.547
lowerback 29.555 3.05897 -1.38629
upperback 14.5112 1.84927 2.68619
thorax -0.0233534 -0.0618218 3.2223
lowerneck -11.6624 -0.663036 -11.3139
upperneck 28.7664 -0.336477 4.35517
head 11.2807 -1.13663 3.45161
rclavicle 2.5842e-015 2.5842e-014
rhumerus -28.4948 -1.93267 -78.8464
rradius 30.7704
rwrist -3.02452
rhand -17.6867 16.2243
rfingers 7.12502
rthumb 8.57265 -13.5817
lclavicle 2.5842e-015 2.5842e-014
lhumerus -47.2368 -11.4468 94.1282
lradius 70.6388
lwrist 13.9535
lhand -0.386083 31.2028
lfingers 7.12502
lthumb 25.2205 59.5561
rfemur -41.8497 -10.8076 12.233
rtibia 84.9885
rfoot 15.7641 -0.923349
rtoes -0.75781
lfemur -45.3643 25.0227 -9.89465
ltibia 100.752
lfoot 12.1354 -10.9876
ltoes -22.2839
616
root 1.48862 15.2808 15.4148 153.485 -81.5946 -184.588
lowerback 29.5931 3.24145 -1.99443
upperback 14.4754 1.93566 2.61979
thorax -0.104206 -0.043514 3.47303
lowerneck -12.2846 -0.936746 -12.5633
upperneck 29.0236 -0.750342 5.79329
head 11.5472 -1.28587 4.16841
rclavicle 1.33186e-014 1.15295e-014
rhumerus -28.3609 -1.9156 -78.693
rradius 30.7395
rwrist -2.89543
rhand -17.8897 16.3062
rfingers 7.12502
rthumb 8.37679 -13.5077
lclavicle 1.33186e-014 1.15295e-014
lhumerus -46.8192 -11.4213 93.7403
lradius 70.6708
lwrist 14.7226
lhand 4.7587 31.2558
lfingers 7.12502
lthumb 30.1398 58.8177
rfemur -41.9982 -10.4298 11.7008
rtibia 85.8924
rfoot 15.2135 -2.65315
rtoes 5.00801
lfemur -45.2032 25.3307 -10.5773
ltibia 101.413
lfoot 12.022 -11.5785
ltoes -24.7705
617
root 1.48998 15.2654 15.4205 152.36 -81.5738 -183.653
lowerback 29.691 3.32561 -1.83358
upperback 14.3434 2.11123 2.73666
thorax -0.311078 0.0621933 3.4579
lowerneck -12.9553 -1.27284 -14.4771
upperneck 29.2365 -1.1435 7.52179
head 11.8275 -1.45813 5.12897
rclavicle -1.04362e-014 1.90833e-014
rhumerus -28.3196 -2.69121 -78.177
rradius 30.7807
rwrist -2.97454
rhand -16.2526 16.8002
rfingers 7.12502
rthumb 9.95646 -12.9444
lclavicle -1.04362e-014 1.90833e-014
lhumerus -46.4121 -11.3542 93.4601
lradius 70.3697
lwrist 14.649
lhand 7.37955 31.5646
lfingers 7.12502
lthumb 32.6369 58.6407
rfemur -42.4148 -11.1096 11.8836
rtibia 86.8658
rfoot 14.3867 -4.2038
rtoes 10.2509
lfemur -45.2818 25.621 -10.4918
ltibia 102.251
lfoot 12.1655 -11.9362
ltoes -25.2536
618
root 1.49267 15.2642 15.4254 149.384 -81.3746 -180.886
lowerback 29.79 3.34177 -1.58823
upperback 14.23 2.21955 3.05016
thorax -0.495028 0.124014 3.63111
lowerneck -12.8606 -1.27009 -13.9987
upperneck 28.8218 -1.11178 7.0839
head 11.6386 -1.4211 4.86419
rclavicle -1.03368e-014 2.66371e-014
rhumerus -28.3305 -1.84718 -78.0701
rradius 30.68
rwrist -1.68173
rhand -18.0697 16.4055
rfingers 7.12502
rthumb 8.20309 -13.4152
lclavicle -1.03368e-014 2.66371e-014
lhumerus -46.0532 -10.8371 93.1415
lradius 70.0833
lwrist 14.5971
lhand 6.5868 32.9235
lfingers 7.12502
lthumb 31.8823 60.153
rfemur -42.5919 -11.4391 12.4835
rtibia 87.6812
rfoot 14.5916 -4.46467
rtoes 9.78887
lfemur -45.1703 25.9253 -9.9309
ltibia 103.03
lfoot 12.0831 -12.8974
ltoes -26.9129
619
root 1.49725 15.2631 15.4325 147.033 -81.2993 -178.813
lowerback 29.9054 3.27951 -1.32788
upperback 14.1759 2.21552 3.20313
thorax -0.603379 0.130876 3.65111
lowerneck -13.0264 -1.3029 -13.5032
upperneck 28.736 -1.17818 6.85201
head 11.6422 -1.41616 4.67947
rclavicle -1.5207e-014 -1.19271e-014
rhumerus -28.1031 -1.49474 -77.8329
rradius 30.7023
rwrist -2.08487
rhand -18.0762 16.2943
rfingers 7.12502
rthumb 8.19677 -13.5267
lclavicle -1.5207e-014 -1.19271e-014
lhumerus -45.7105 -10.547 92.5799
lradius 69.9836
lwrist 15.1573
lhand 10.8132 32.517
lfingers 7.12502
lthumb 35.8972 58.8587
rfemur -42.606 -11.737 12.9376
rtibia 88.4554
rfoot 16.1381 -2.23182
rtoes 0.0550515
lfemur -44.9436 26.1412 -9.58751
ltibia 103.734
lfoot 13.134 -11.4219
ltoes -22.4219
620
root 1.50356 15.2644 15.4347 147.737 -81.2116 -179.652
lowerback 29.8596 3.36425 -1.42725
upperback 14.0697 2.31909 3.11755
thorax -0.713702 0.193662 3.58227
lowerneck -13.2904 -1.41968 -13.4061
upperneck 28.7267 -1.40549 7.13904
head 11.7175 -1.46611 4.74582
rclavicle -3.58806e-014 -4.17448e-014
rhumerus -27.9684 -1.11423 -77.8182
rradius 30.8926
rwrist -3.0613
rhand -17.8628 16.1919
rfingers 7.12502
rthumb 8.4027 -13.6209
lclavicle -3.58806e-014 -4.17448e-014
lhumerus -45.4198 -10.2665 91.8725
lradius 69.9189
lwrist 15.9021
lhand 14.6641 33.6811
lfingers 7.12502
lthumb 39.5354 59.0457
rfemur -42.8642 -11.8209 13.035
rtibia 89.2224
rfoot 15.9262 -3.10657
rtoes 2.4585
lfemur -44.7972 26.3561 -9.65427
ltibia 104.354
lfoot 13.7981 -10.5443
ltoes -19.5714
621
root 1.51034 15.2695 15.4465 147.804 -81.1641 -179.826
lowerback 29.8123 3.32752 -1.49989
upperback 13.9726 2.27168 3.11196
thorax -0.803097 0.175858 3.63184
lowerneck -13.9496 -1.6541 -14.5971
upperneck 28.981 -1.65031 8.23507
head 12.0012 -1.57103 5.36418
rclavicle -1.5207e-014 4.37326e-015
rhumerus -27.7255 -0.0906968 -77.8513
rradius 30.9625
rwrist -2.82914
rhand -18.5364 15.9566
rfingers 7.12502
rthumb 7.75266 -13.8812
lclavicle -1.5207e-014 4.37326e-015
lhumerus -45.1435 -9.33996 91.1571
lradius 69.9509
lwrist 17.2555
lhand 15.5659 36.5978
lfingers 7.12502
lthumb 40.384 61.7068
rfemur -43.0858 -12.0627 13.079
rtibia 89.9315
rfoot 15.8046 -4.05585
rtoes 4.87489
lfemur -44.6992 26.2622 -9.67199
ltibia 104.965
lfoot 14.3626 -10.008
ltoes -16.7443
